:FULLY-SPECIFIED
:FORCE-ALL-JOINTS-BE-3DOF
:DEGREES
1
root 6.24314 16.836 -28.1378 9.0217 -2.52979 -3.05774
lfemur -20.3712 2.30257 -19.9954
ltibia 35.927 0 0
lfoot -38.654 3.93715 0
ltoes 38.9541 0 0
rfemur -19.4747 0.22019 19.5256
rtibia 36.0342 0 0
rfoot -30.3779 -10.4967 0
rtoes 21.4483 0 0
lowerback -2.05144 3.66971 -5.03766
upperback -2.66728 5.00355 3.49279
thorax -2.36397 2.67023 6.42441
lowerneck -9.84699 -2.36864 1.94815
upperneck -1.37933 -3.32542 -1.65382
head 1.16433 -1.69823 -0.975663
lclavicle -1.65488e-14 -3.69739e-14 0
lhumerus -41.7253 -10.8128 99.8312
lradius 34.5094 0 0
lwrist 2.17521 0 0
lhand -10.5949 9.65639 0
lfingers 7.12502 0 0
lthumb 15.4107 39.062 0
rclavicle -1.65488e-14 -3.69739e-14 0
rhumerus -43.273 -4.86223 -84.2703
rradius 40.4763 0 0
rwrist 9.89469 0 0
rhand -23.7965 -22.476 0
rfingers 7.12502 0 0
rthumb 2.67393 -52.439 0
2
root 6.27933 16.8498 -28.1364 8.9491 -2.28456 -3.1623
lfemur -20.7871 2.1958 -20.0075
ltibia 36.2892 0 0
lfoot -38.2923 3.97226 0
ltoes 38.4218 0 0
rfemur -19.6 0.20979 19.5825
rtibia 36.625 0 0
rfoot -29.5489 -10.1648 0
rtoes 20.4692 0 0
lowerback -1.98541 3.69353 -4.96462
upperback -2.66427 5.03397 3.57038
thorax -2.38824 2.6838 6.46426
lowerneck -9.83832 -2.44672 1.91115
upperneck -1.41768 -3.42155 -1.64431
head 1.149 -1.74745 -0.970401
lclavicle -1.61987e-14 -3.63816e-14 0
lhumerus -41.6663 -10.4044 99.5525
lradius 34.5939 0 0
lwrist 2.20035 0 0
lhand -10.7326 9.42239 0
lfingers 7.12502 0 0
lthumb 15.293 38.9585 0
rclavicle -1.61987e-14 -3.63816e-14 0
rhumerus -43.6443 -4.77825 -84.7621
rradius 40.5185 0 0
rwrist 9.99333 0 0
rhand -23.8033 -22.0837 0
rfingers 7.12502 0 0
rthumb 2.66748 -48.5374 0
3
root 6.3149 16.8632 -28.1344 8.87683 -2.04156 -3.26412
lfemur -21.1935 2.08943 -20.0155
ltibia 36.642 0 0
lfoot -37.9336 4.00368 0
ltoes 37.8965 0 0
rfemur -19.7262 0.195746 19.6334
rtibia 37.2126 0 0
rfoot -28.7273 -9.83083 0
rtoes 19.5074 0 0
lowerback -1.92036 3.71607 -4.8914
upperback -2.66087 5.0627 3.64502
thorax -2.41156 2.69651 6.5009
lowerneck -9.83012 -2.52347 1.87544
upperneck -1.45466 -3.5162 -1.63406
head 1.13424 -1.79587 -0.96507
lclavicle -1.58504e-14 -3.57937e-14 0
lhumerus -41.6112 -10.007 99.2795
lradius 34.6813 0 0
lwrist 2.23019 0 0
lhand -10.8592 9.19498 0
lfingers 7.12502 0 0
lthumb 15.1855 38.8567 0
rclavicle -1.58504e-14 -3.57937e-14 0
rhumerus -44.0043 -4.69485 -85.2346
rradius 40.5634 0 0
rwrist 10.084 0 0
rhand -23.8074 -21.6995 0
rfingers 7.12502 0 0
rthumb 2.66356 -44.7486 0
4
root 6.34985 16.876 -28.132 8.80491 -1.80082 -3.36321
lfemur -21.5904 1.98346 -20.0194
ltibia 36.9854 0 0
lfoot -37.5778 4.03145 0
ltoes 37.3779 0 0
rfemur -19.8534 0.178114 19.6782
rtibia 37.797 0 0
rfoot -27.9133 -9.49479 0
rtoes 18.5627 0 0
lowerback -1.8563 3.73735 -4.81801
upperback -2.65709 5.08975 3.71673
thorax -2.43394 2.70836 6.53439
lowerneck -9.82238 -2.59892 1.84101
upperneck -1.4903 -3.60937 -1.62308
head 1.12004 -1.84349 -0.959674
lclavicle -1.55039e-14 -3.521e-14 0
lhumerus -41.5599 -9.62049 99.0123
lradius 34.7716 0 0
lwrist 2.26467 0 0
lhand -10.9748 8.97409 0
lfingers 7.12502 0 0
lthumb 15.0881 38.7567 0
rclavicle -1.55039e-14 -3.521e-14 0
rhumerus -44.3532 -4.61204 -85.6881
rradius 40.6111 0 0
rwrist 10.167 0 0
rhand -23.809 -21.3232 0
rfingers 7.12502 0 0
rthumb 2.66215 -41.0713 0
5
root 6.38419 16.8884 -28.129 8.73332 -1.56232 -3.4596
lfemur -21.9778 1.8779 -20.0194
ltibia 37.3196 0 0
lfoot -37.2251 4.05562 0
ltoes 36.8661 0 0
rfemur -19.9814 0.156951 19.717
rtibia 38.3783 0 0
rfoot -27.1068 -9.15678 0
rtoes 17.635 0 0
lowerback -1.79321 3.75737 -4.74447
upperback -2.65293 5.11515 3.78554
thorax -2.45539 2.71938 6.56475
lowerneck -9.81511 -2.67305 1.80783
upperneck -1.5246 -3.70107 -1.61139
head 1.10639 -1.89031 -0.954212
lclavicle -1.51591e-14 -3.46306e-14 0
lhumerus -41.5123 -9.24475 98.7508
lradius 34.8648 0 0
lwrist 2.3037 0 0
lhand -11.0796 8.75967 0
lfingers 7.12502 0 0
lthumb 15.0006 38.6585 0
rclavicle -1.51591e-14 -3.46306e-14 0
rhumerus -44.6911 -4.52982 -86.1227
rradius 40.6615 0 0
rwrist 10.2421 0 0
rhand -23.8079 -20.9548 0
rfingers 7.12502 0 0
rthumb 2.66321 -37.5045 0
6
root 6.41791 16.9003 -28.1256 8.66209 -1.32607 -3.55333
lfemur -22.3559 1.77277 -20.0154
ltibia 37.6447 0 0
lfoot -36.8754 4.07625 0
ltoes 36.3612 0 0
rfemur -20.1102 0.132312 19.75
rtibia 38.9562 0 0
rfoot -26.3078 -8.81689 0
rtoes 16.7242 0 0
lowerback -1.7311 3.77615 -4.67078
upperback -2.6484 5.13892 3.85149
thorax -2.47592 2.72956 6.59203
lowerneck -9.80829 -2.74589 1.77591
upperneck -1.55757 -3.79131 -1.59901
head 1.09328 -1.93635 -0.948688
lclavicle -1.48162e-14 -3.40556e-14 0
lhumerus -41.4685 -8.87969 98.4949
lradius 34.9607 0 0
lwrist 2.34722 0 0
lhand -11.1737 8.55164 0
lfingers 7.12502 0 0
lthumb 14.923 38.5621 0
rclavicle -1.48162e-14 -3.40556e-14 0
rhumerus -45.0181 -4.44819 -86.5386
rradius 40.7146 0 0
rwrist 10.3097 0 0
rhand -23.8044 -20.5942 0
rfingers 7.12502 0 0
rthumb 2.66669 -34.0471 0
7
root 6.45103 16.9118 -28.1217 8.59121 -1.09207 -3.6444
lfemur -22.7248 1.66807 -20.0076
ltibia 37.9607 0 0
lfoot -36.5287 4.09338 0
ltoes 35.863 0 0
rfemur -20.2399 0.104255 19.7772
rtibia 39.5308 0 0
rfoot -25.5164 -8.47519 0
rtoes 15.8302 0 0
lowerback -1.66995 3.79372 -4.59697
upperback -2.64351 5.16107 3.91462
thorax -2.49554 2.73892 6.61628
lowerneck -9.80192 -2.81745 1.74521
upperneck -1.58924 -3.8801 -1.58593
head 1.08072 -1.98159 -0.943104
lclavicle -1.44752e-14 -3.34849e-14 0
lhumerus -41.4283 -8.52521 98.2446
lradius 35.0594 0 0
lwrist 2.39514 0 0
lhand -11.2573 8.34994 0
lfingers 7.12502 0 0
lthumb 14.8551 38.4674 0
rclavicle -1.44752e-14 -3.34849e-14 0
rhumerus -45.3343 -4.36716 -86.9362
rradius 40.7702 0 0
rwrist 10.3698 0 0
rhand -23.7984 -20.2414 0
rfingers 7.12502 0 0
rthumb 2.67256 -30.698 0
